<svg xmlns="http://www.w3.org/2000/svg" xmlns:xlink="http://www.w3.org/1999/xlink" width="24px" height="17px" viewBox="0 0 24 17" version="1.1" style="margin-top: 3px; margin-right: 5px;">
<g id="surface1">
<path style=" stroke:none;fill-rule:nonzero;fill:rgb(100%,100%,100%);fill-opacity:1;" d="M 12.070312 0 C 12.070312 0 4.515625 0 2.625 0.5 C 1.609375 0.78125 0.777344 1.621094 0.496094 2.660156 C 0 4.558594 0 8.5 0 8.5 C 0 8.5 0 12.460938 0.496094 14.339844 C 0.777344 15.378906 1.589844 16.199219 2.625 16.480469 C 4.535156 17 12.070312 17 12.070312 17 C 12.070312 17 19.625 17 21.515625 16.5 C 22.546875 16.21875 23.363281 15.398438 23.640625 14.359375 C 24.140625 12.460938 24.140625 8.519531 24.140625 8.519531 C 24.140625 8.519531 24.160156 4.558594 23.640625 2.660156 C 23.363281 1.621094 22.546875 0.800781 21.515625 0.519531 C 19.625 0 12.070312 0 12.070312 0 Z M 9.664062 4.859375 L 15.945312 8.5 L 9.664062 12.140625 Z M 9.664062 4.859375 "/>
</g>
</svg>
